<?xml version="1.0" standalone="no"?>
<!DOCTYPE svg PUBLIC "-//W3C//DTD SVG 20010904//EN"
 "http://www.w3.org/TR/2001/REC-SVG-20010904/DTD/svg10.dtd">
<svg version="1.0" xmlns="http://www.w3.org/2000/svg"
 width="784.000000pt" height="784.000000pt" viewBox="0 0 784.000000 784.000000"
 preserveAspectRatio="xMidYMid meet">
<metadata>
Created by potrace 1.11, written by Peter Selinger 2001-2013
</metadata>
<g transform="translate(0.000000,784.000000) scale(0.100000,-0.100000)"
fill="#000000" stroke="none">
<path d="M3863 7201 c-48 -48 -133 -138 -209 -221 -32 -36 -127 -149 -214
-257 -6 -7 -22 -29 -36 -50 -14 -21 -28 -40 -32 -43 -4 -3 -11 -12 -17 -21 -5
-9 -40 -61 -76 -115 -158 -237 -258 -448 -339 -711 -7 -24 -15 -43 -17 -43 -3
0 -50 24 -106 53 -84 44 -292 133 -332 142 -5 1 -17 4 -25 7 -69 24 -258 72
-320 83 -19 3 -42 8 -51 11 -10 2 -30 6 -45 9 -16 2 -42 6 -59 8 -59 10 -111
18 -152 22 -24 3 -60 7 -80 9 -179 20 -580 35 -601 23 -20 -13 7 -534 29 -563
5 -6 6 -13 3 -17 -7 -6 42 -214 56 -239 6 -10 10 -25 10 -33 0 -8 4 -23 10
-33 5 -9 27 -54 49 -99 71 -147 151 -250 297 -383 49 -46 174 -141 229 -176
17 -10 32 -21 35 -24 11 -11 172 -110 180 -110 5 0 10 -3 12 -8 2 -4 48 -35
103 -70 117 -72 98 -60 250 -164 66 -45 126 -88 133 -95 7 -7 17 -13 20 -13 4
0 18 -10 32 -22 14 -13 58 -34 98 -47 69 -23 215 -100 237 -126 6 -6 33 -30
62 -54 60 -48 159 -165 222 -261 23 -36 40 -54 36 -40 -10 40 -47 133 -62 157
-13 20 -12 21 29 29 54 10 44 8 104 23 50 12 51 13 63 64 7 29 15 85 18 125 5
64 3 72 -12 72 -32 0 -86 33 -100 61 -16 31 -22 62 -29 159 -5 74 -17 111 -72
227 -31 67 -43 83 -65 88 -55 12 -73 62 -54 155 18 86 28 165 29 233 2 44 -3
81 -14 105 -20 47 -19 143 5 237 23 95 25 105 30 139 10 65 47 194 72 246 47
98 144 215 216 258 15 9 27 20 27 24 0 4 9 8 19 8 11 0 21 4 23 8 4 11 120 58
163 67 72 15 105 18 185 18 105 0 154 -7 250 -39 257 -85 441 -290 476 -529
10 -63 10 -219 1 -311 -7 -70 -7 -72 23 -104 26 -28 30 -39 30 -92 0 -111 -67
-261 -157 -354 -38 -38 -40 -45 -37 -90 6 -86 14 -166 19 -188 3 -11 7 -32 9
-46 15 -94 59 -217 122 -345 53 -107 61 -118 81 -121 151 -23 376 -96 508
-164 61 -31 126 -63 145 -70 19 -8 37 -16 40 -20 3 -3 23 -17 45 -32 163 -107
316 -297 459 -567 33 -64 61 -118 62 -121 0 -5 13 -32 72 -160 40 -86 122
-295 122 -310 0 -9 4 -20 9 -25 14 -17 125 -353 167 -510 2 -5 17 -62 35 -125
34 -123 67 -256 75 -305 3 -16 9 -41 13 -55 10 -32 6 -153 -7 -177 -5 -10 -13
-38 -16 -63 -3 -25 -8 -54 -10 -65 -2 -11 -7 -38 -11 -60 -4 -22 -9 -49 -10
-60 -2 -11 -11 -65 -21 -120 -9 -55 -18 -109 -19 -120 -2 -11 -6 -37 -10 -57
-4 -21 -3 -39 1 -39 27 -4 96 -8 237 -14 l158 -8 -5 184 c-7 222 -15 344 -31
479 -2 19 -6 55 -9 80 -3 25 -8 56 -11 70 -3 14 -8 45 -11 69 -2 24 -7 47 -9
52 -3 4 -8 26 -11 48 -5 33 -23 112 -58 251 -7 25 -57 172 -81 235 -27 72 -89
203 -127 267 l-27 47 42 12 c73 21 190 61 234 80 24 11 45 19 49 19 11 0 281
137 310 157 16 11 82 56 148 99 159 106 149 99 261 189 155 124 243 202 461
413 l24 23 -74 72 c-155 152 -240 227 -426 377 -30 25 -56 48 -58 53 -2 4 -9
7 -17 7 -7 0 -18 7 -25 14 -13 16 -242 171 -302 205 -21 11 -68 37 -105 57
-37 20 -74 41 -80 47 -7 5 -13 6 -13 2 0 -4 -11 0 -24 8 -37 25 -139 65 -278
111 -121 40 -127 43 -114 62 22 32 115 214 109 214 -3 0 1 10 9 23 8 12 23 47
33 77 11 30 23 59 27 65 4 5 8 15 8 21 0 7 5 25 12 41 6 15 12 33 13 38 2 6
13 48 25 95 12 47 23 93 25 103 2 9 6 21 9 25 2 4 7 28 11 52 3 25 10 61 15
80 5 19 11 56 12 83 2 26 5 47 8 47 3 0 6 8 6 18 1 18 11 115 20 192 18 143
33 564 21 576 -12 12 -455 -3 -587 -21 -19 -2 -64 -7 -100 -11 -36 -3 -67 -7
-70 -9 -3 -2 -34 -6 -70 -10 -36 -4 -69 -9 -74 -12 -4 -3 -25 -8 -45 -10 -101
-13 -393 -96 -536 -153 -16 -6 -31 -11 -32 -11 -1 0 -59 -29 -129 -64 -70 -36
-131 -62 -135 -59 -5 3 -9 12 -9 21 0 20 -64 212 -92 278 -41 93 -157 314
-193 364 -19 28 -35 53 -35 56 0 3 -7 15 -15 28 -105 148 -161 223 -167 225
-4 2 -8 8 -8 14 0 5 -6 15 -13 22 -7 8 -29 33 -48 56 -18 24 -68 82 -109 129
-67 77 -111 125 -246 267 -23 24 -46 44 -52 44 -6 0 -32 -22 -59 -49z"/>
<path d="M4029 4501 c-8 -9 -14 -22 -13 -28 1 -7 2 -19 3 -26 2 -20 42 -36 68
-26 12 4 25 20 29 34 12 50 -51 83 -87 46z"/>
<path d="M4027 4262 c-38 -42 3 -114 59 -104 24 3 49 47 45 77 -6 43 -74 61
-104 27z"/>
<path d="M1059 4157 c-14 -7 -32 -17 -40 -23 -8 -6 -25 -15 -39 -19 -14 -4
-27 -11 -30 -14 -3 -4 -32 -22 -65 -40 -233 -129 -483 -328 -801 -637 l-84
-81 29 -29 c54 -56 207 -200 269 -254 35 -30 69 -60 75 -65 7 -6 46 -38 87
-70 41 -33 77 -62 80 -65 3 -3 21 -17 40 -30 19 -13 37 -27 40 -30 13 -14 190
-130 199 -130 6 0 11 -3 11 -7 0 -8 53 -41 68 -43 4 -1 14 -7 22 -15 16 -14
227 -122 295 -150 56 -24 189 -70 258 -90 57 -16 58 -17 43 -38 -9 -12 -25
-43 -37 -69 -12 -27 -25 -48 -30 -48 -5 0 -9 -8 -9 -18 0 -10 -4 -22 -9 -28
-10 -11 -91 -209 -91 -223 0 -5 -5 -22 -12 -38 -6 -15 -12 -31 -13 -35 -2 -5
-3 -9 -5 -10 -2 -3 -1 -2 -40 -153 -17 -66 -33 -133 -36 -150 -2 -16 -6 -41
-9 -55 -14 -72 -26 -145 -31 -187 -2 -27 -7 -59 -9 -73 -3 -14 -7 -59 -11
-100 -3 -41 -8 -93 -10 -115 -2 -22 -7 -134 -10 -249 l-6 -209 203 7 c112 3
220 8 239 10 19 3 62 7 95 10 33 3 78 9 100 12 22 3 56 7 75 8 19 2 76 11 125
20 50 9 104 18 120 21 17 3 38 8 47 11 10 3 30 8 45 10 15 3 59 14 98 25 38
11 79 22 90 24 37 8 259 88 350 125 70 30 91 43 95 61 8 31 5 355 -5 484 -13
182 -28 335 -40 404 -2 13 -7 45 -11 70 -4 25 -8 53 -9 61 -38 215 -70 350
-118 500 -12 36 -22 67 -22 70 -1 3 -5 14 -9 25 -4 11 -13 34 -18 50 -22 63
-44 114 -101 227 -95 194 -207 350 -351 493 -121 120 -167 155 -466 356 -85
57 -157 106 -160 109 -3 3 -32 25 -65 50 -33 24 -73 56 -90 70 -50 42 -189
184 -210 214 -59 84 -55 81 -96 63z"/>
<path d="M4046 3998 c-43 -40 -36 -96 16 -121 54 -26 107 8 108 69 0 66 -74
97 -124 52z"/>
<path d="M4150 3723 c-39 -11 -60 -29 -70 -59 -21 -63 18 -119 81 -119 75 0
116 77 75 140 -16 24 -62 45 -86 38z"/>
<path d="M4223 3372 c-30 -5 -70 -48 -78 -82 -13 -58 35 -118 95 -122 39 -2
53 5 83 36 67 72 1 184 -100 168z"/>
<path d="M4294 2970 c-67 -27 -85 -122 -35 -178 17 -17 34 -32 38 -33 4 0 17
-2 28 -4 59 -12 124 44 127 107 3 81 -82 139 -158 108z"/>
<path d="M4341 2528 c-23 -11 -41 -26 -41 -34 0 -8 -4 -14 -8 -14 -9 0 -11
-12 -13 -62 -2 -93 117 -148 195 -91 71 51 49 187 -33 208 -52 14 -60 13 -100
-7z"/>
<path d="M5219 2453 c-7 -21 -14 -41 -15 -45 -1 -5 -2 -9 -4 -10 -1 -2 -3 -10
-5 -18 -2 -8 -13 -49 -24 -90 -11 -41 -22 -92 -25 -114 -4 -21 -8 -41 -10 -45
-2 -3 -6 -28 -10 -56 -3 -27 -8 -60 -10 -72 -6 -28 -18 -143 -22 -208 -4 -64
-3 -437 1 -490 2 -22 6 -76 10 -120 3 -44 8 -92 10 -107 12 -71 14 -86 20
-128 3 -25 7 -54 9 -65 3 -11 5 -29 5 -40 1 -13 12 -24 34 -32 17 -6 77 -28
132 -48 55 -20 139 -47 186 -59 l85 -22 1 99 c2 139 13 313 29 422 13 93 12
94 -32 190 -23 50 -51 110 -62 135 -11 25 -48 106 -82 180 -34 74 -63 140 -64
145 -1 6 -13 33 -25 60 -45 97 -55 120 -56 125 -2 5 -15 38 -38 90 -6 14 -11
27 -12 30 0 3 -7 16 -14 29 -10 19 -12 48 -7 115 9 122 14 164 21 176 3 6 2
10 -4 10 -5 0 -15 -17 -22 -37z"/>
<path d="M4342 2058 c-7 -7 -12 -9 -12 -4 0 14 -47 -48 -55 -73 -4 -12 -1 -43
5 -67 14 -49 57 -84 105 -84 40 0 95 22 95 37 0 7 4 13 9 13 10 0 18 20 26 60
7 36 -26 98 -61 115 -38 18 -95 20 -112 3z"/>
<path d="M4291 1597 c-70 -35 -88 -133 -36 -187 66 -68 169 -45 199 44 34 99
-71 191 -163 143z"/>
<path d="M4280 1181 c-61 -24 -85 -76 -64 -137 8 -21 14 -40 14 -41 0 0 15 -7
33 -13 63 -24 118 -3 143 55 14 34 12 49 -9 94 -16 33 -81 57 -117 42z"/>
<path d="M4293 813 c-29 -6 -63 -49 -63 -80 0 -27 37 -86 49 -79 4 3 13 1 20
-4 32 -19 99 30 95 70 0 8 -2 25 -2 37 -2 18 -59 67 -73 62 -2 -1 -14 -4 -26
-6z"/>
</g>
</svg>
