<svg xmlns="http://www.w3.org/2000/svg" xmlns:xlink="http://www.w3.org/1999/xlink" viewBox="0 0 308.22 112.74"><defs><style>.cls-1{font-size:31.39px;}.cls-1,.cls-2{fill:#264347;font-family:TeXGyreAdventor-Bold, TeX Gyre Adventor;font-weight:700;}.cls-2{font-size:11.62px;letter-spacing:0.05em;}.cls-3,.cls-4,.cls-5,.cls-6{fill-rule:evenodd;}.cls-3{fill:url(#radial-gradient);}.cls-4{fill:#71af44;}.cls-5{fill:#827874;}.cls-6{fill:#988c88;}</style><radialGradient id="radial-gradient" cx="70.9" cy="62.08" fx="78.00339312015299" r="57.21" gradientUnits="userSpaceOnUse"><stop offset="0" stop-color="#b2d235"/><stop offset="0.53" stop-color="#9fc73a"/><stop offset="1" stop-color="#8abb40"/></radialGradient></defs><title>Asset 3</title><g id="Layer_2" data-name="Layer 2"><g id="Layer_1-2" data-name="Layer 1"><text class="cls-1" transform="translate(148.12 87.79)">Alleviation</text><text class="cls-2" transform="translate(161.33 104.3)">Wellness Chiropractic</text><path id="Green_Petals" data-name="Green Petals" class="cls-3" d="M76.81,30.38s5.36-4.3,5.93-4.65C80.68,17.44,75.12,9,66,0,57,9,51.4,17.44,49.35,25.73a18.65,18.65,0,0,0,3.95,2.83,12.38,12.38,0,0,1,.47-1.23,11.28,11.28,0,0,1,2.63-3.64C62.51,18,73.24,20.61,76.21,28A10.35,10.35,0,0,1,76.81,30.38ZM55.19,53.1c-7.59-13.42-6.56-20.58-5.85-27.37-7.32-4.41-17.21-6.43-30-6.39a60.93,60.93,0,0,0,.2,7c1.55,17.23,12.79,18.54,24.78,28,4.63,1,8.43,5,10.64,9a9.33,9.33,0,0,0-1.37-3.47l3.26-.77a14.81,14.81,0,0,0,.67-4C55.94,54.71,55.39,54.24,55.19,53.1Zm51.14,29.64c8.3-2.06,16.73-7.61,25.75-16.7-9-9.07-17.43-14.63-25.73-16.69C102.89,54.62,96,59.71,90.16,62.48c3.1,2,5.65,5,8.17,9.68a83.93,83.93,0,0,1,4.86,11.2,138.55,138.55,0,0,1,4.62,16.09h0a6.39,6.39,0,0,1-.26,3.56L106,112.48c2.26.12,4.51.27,6.78.26.05-12.78-2-22.68-6.39-30Zm0-33.39c4.41-7.32,6.44-17.22,6.39-30-12.79-.05-22.68,2-30,6.38,1.13,9.58-.7,18.84-6.64,28.54.31.76.64,1.49,1,2.21C87.5,50.34,97,48,106.35,49.35Z"/><path id="Dark_Green" data-name="Dark Green" class="cls-4" d="M99.79,75.08c1.2,2.53,2.34,5.31,3.4,8.28a32,32,0,0,0,3.16-.62A29.54,29.54,0,0,0,99.79,75.08Zm6.56-25.73c-9.69-2.41-19.19,0-29.24,7.13q.4.78.84,1.53c4,.86,6.93,1.44,10.38,3.67a6.55,6.55,0,0,1,1.83.8A30.8,30.8,0,0,0,106.35,49.35ZM82.74,25.73a30.16,30.16,0,0,0-5.93,4.65,22,22,0,0,1-.24,6.37c1.63.64,1.15,2.83.75,4.12a9.15,9.15,0,0,1-2.93,4.44,23.28,23.28,0,0,0,1.71,9C82.88,44.49,85.09,35.2,82.74,25.73ZM53.24,46.25l-.07-.18c-2.26-.55-1.48-1.39-.89-5.63,0-.79,0-1.57,0-2.4-.74-1.12-.59-2.71-.13-4.43s.62-3.39,1.15-5.05a29.2,29.2,0,0,0-4-2.83c-2.25,9.09-.3,18,5.85,27.37a9.67,9.67,0,0,1-.1-1.21C55,49.45,54.45,48.77,53.24,46.25Z"/><path id="Backbone_dots" data-name="Backbone dots" class="cls-5" d="M73.69,95.29a2.06,2.06,0,1,0,1.42,2.54A2.07,2.07,0,0,0,73.69,95.29Zm-.59,7.13a1.77,1.77,0,1,0,1.22,2.18A1.77,1.77,0,0,0,73.1,102.42Zm0,6.25a1.41,1.41,0,0,0-1.75,1,1.42,1.42,0,0,0,2.73.77A1.41,1.41,0,0,0,73.06,108.67ZM68.28,47.92a.88.88,0,0,0,1.1-.61.9.9,0,0,0-.61-1.1.89.89,0,0,0-1.1.62A.88.88,0,0,0,68.28,47.92Zm0,4.34A1.06,1.06,0,1,0,67.55,51,1.06,1.06,0,0,0,68.28,52.26Zm5,15.46a1.76,1.76,0,1,0-2.17,1.21A1.76,1.76,0,0,0,73.25,67.72Zm1.32,19.79A2.06,2.06,0,1,0,76,90.06,2.05,2.05,0,0,0,74.57,87.51ZM70.23,56.24a1.29,1.29,0,0,0-.9-1.61,1.3,1.3,0,0,0-1.62.9,1.32,1.32,0,0,0,.91,1.62A1.3,1.3,0,0,0,70.23,56.24Zm1.35,5.31a1.53,1.53,0,1,0-1.89,1.05A1.53,1.53,0,0,0,71.58,61.55Zm-.33,12a1.91,1.91,0,1,0,2.35-1.31A1.89,1.89,0,0,0,71.25,73.57Zm3.4,6a2.06,2.06,0,1,0,1.42,2.55A2.05,2.05,0,0,0,74.65,79.54Z"/><path id="Brown_Petals" data-name="Brown Petals" class="cls-6" d="M94.82,100.46c-3.24-7-5.32-11.72-6.9-15.5a32.43,32.43,0,0,1,.63-5.62c-3.56,9-3.34,19.75-1.74,29.11a44.55,44.55,0,0,0,7.32,2.41A62.75,62.75,0,0,1,94.82,100.46ZM44.57,81.38h0C42.46,74.49,38.76,68.32,32.93,64c-4.72-3.49-11-6.64-14.45-12C12.24,55,6.84,59.16,0,66c9,9.09,17.45,14.65,25.76,16.7h0c-4.41,7.32-6.43,17.22-6.39,30,10,0,19.3-1.24,28.35-5.46a83.43,83.43,0,0,0-3.12-25.9Z"/><path id="Dark_Brown" data-name="Dark Brown" class="cls-5" d="M39.41,70.65A30.2,30.2,0,0,0,25.73,82.74a30.36,30.36,0,0,0,18.84-1.36A37.36,37.36,0,0,0,39.41,70.65Z"/></g></g></svg>