<svg xmlns="http://www.w3.org/2000/svg" xmlns:xlink="http://www.w3.org/1999/xlink" viewBox="0 0 195.52 166.89"><defs><style>.cls-1,.cls-2,.cls-3,.cls-4{fill-rule:evenodd;}.cls-1{fill:url(#radial-gradient);}.cls-2{fill:#71af44;}.cls-3{fill:#827874;}.cls-4{fill:#988c88;}</style><radialGradient id="radial-gradient" cx="104.95" cy="91.9" fx="115.46417688513553" fy="101.04178809097971" r="84.69" gradientUnits="userSpaceOnUse"><stop offset="0" stop-color="#b2d235"/><stop offset="0.53" stop-color="#9fc73a"/><stop offset="1" stop-color="#8abb40"/></radialGradient></defs><title>Asset 5</title><g id="Layer_2" data-name="Layer 2"><g id="Layer_1-2" data-name="Layer 1"><path id="Green_Petals" data-name="Green Petals" class="cls-1" d="M113.69,45s7.93-6.37,8.78-6.88c-3-12.28-11.28-24.75-24.71-38.09C84.33,13.34,76.09,25.81,73,38.09a27.5,27.5,0,0,0,5.86,4.18,14.35,14.35,0,0,1,.7-1.81,16.72,16.72,0,0,1,3.88-5.39c9-8.39,24.93-4.56,29.32,6.37A14.58,14.58,0,0,1,113.69,45ZM81.7,78.6C70.47,58.73,72,48.14,73,38.09c-10.84-6.53-25.48-9.52-44.41-9.46a89,89,0,0,0,.3,10.4c2.29,25.51,18.93,27.45,36.68,41.48,6.85,1.56,12.48,7.33,15.74,13.34a13.72,13.72,0,0,0-2-5.14c1.67-.38,3.26-.77,4.82-1.14a21.94,21.94,0,0,0,1-6C82.8,81,82,80.28,81.7,78.6Zm75.69,43.87c12.29-3,24.78-11.27,38.13-24.71-13.34-13.43-25.81-21.66-38.09-24.71-5.12,7.8-15.41,15.34-24,19.44,4.6,2.9,8.37,7.32,12.1,14.32a126,126,0,0,1,7.2,16.58,205.27,205.27,0,0,1,6.83,23.82h0a9.52,9.52,0,0,1-.38,5.27l-2.36,14c3.35.19,6.68.41,10,.4.07-18.93-2.93-33.57-9.45-44.41Zm0-49.42C164,62.21,167,47.56,166.88,28.64c-18.92-.07-33.57,2.92-44.41,9.45,1.68,14.18-1,27.88-9.82,42.25.45,1.12.95,2.2,1.49,3.26C129.52,74.52,143.63,71.1,157.43,73.05Z"/><path id="Dark_Green" data-name="Dark Green" class="cls-2" d="M147.72,111.14c1.77,3.75,3.45,7.85,5,12.25,1.56-.22,3.12-.53,4.68-.91A43.73,43.73,0,0,0,147.72,111.14Zm9.71-38.09C143.09,69.49,129,73,114.14,83.6c.4.77.81,1.53,1.24,2.27,5.86,1.27,10.27,2.13,15.38,5.43a9.69,9.69,0,0,1,2.69,1.19C144.08,88.48,152,82.09,157.43,73.05Zm-35-35A44.2,44.2,0,0,0,113.7,45a32.4,32.4,0,0,1-.36,9.43c2.42.94,1.7,4.19,1.11,6.09a13.61,13.61,0,0,1-4.33,6.59,34.64,34.64,0,0,0,2.52,13.27C122.68,65.85,126,52.1,122.47,38.09ZM78.81,68.47l-.11-.28c-3.34-.8-2.19-2-1.31-8.33,0-1.16,0-2.32,0-3.55-1.09-1.66-.87-4-.19-6.55s.92-5,1.71-7.49A45.23,45.23,0,0,0,73,38.09C69.7,51.54,72.59,64.75,81.7,78.6a12.38,12.38,0,0,1-.15-1.79C81.45,73.2,80.6,72.2,78.81,68.47Z"/><path id="Backbone_dots" data-name="Backbone dots" class="cls-3" d="M109.07,141.05a3,3,0,1,0,2.11,3.76A3,3,0,0,0,109.07,141.05Zm-.86,10.56a2.61,2.61,0,1,0,1.8,3.22A2.61,2.61,0,0,0,108.21,151.61Zm-.06,9.24a2.1,2.1,0,1,0,1.45,2.59A2.1,2.1,0,0,0,108.15,160.85Zm-7.07-89.91a1.31,1.31,0,1,0-.91-1.62A1.31,1.31,0,0,0,101.08,70.94Zm0,6.42A1.57,1.57,0,1,0,100,75.42,1.57,1.57,0,0,0,101.08,77.36Zm7.35,22.88a2.61,2.61,0,1,0-3.21,1.8A2.61,2.61,0,0,0,108.43,100.24Zm1.95,29.3a3.05,3.05,0,1,0,2.11,3.77A3,3,0,0,0,110.38,129.54ZM104,83.25a1.94,1.94,0,1,0-2.39,1.34A1.93,1.93,0,0,0,104,83.25Zm2,7.85a2.27,2.27,0,1,0-2.8,1.57A2.26,2.26,0,0,0,106,91.1Zm-.48,17.81a2.82,2.82,0,1,0,3.48-2A2.82,2.82,0,0,0,105.47,108.91Zm5,8.83a3.05,3.05,0,1,0,2.11,3.77A3.05,3.05,0,0,0,110.5,117.74Z"/><path id="Brown_Petals" data-name="Brown Petals" class="cls-4" d="M140.36,148.71c-4.8-10.33-7.87-17.35-10.22-23a47.79,47.79,0,0,1,.94-8.31c-5.28,13.29-4.94,29.23-2.58,43.09a66.87,66.87,0,0,0,10.84,3.58A91.88,91.88,0,0,1,140.36,148.71ZM66,120.46h0c-3.12-10.2-8.59-19.33-17.23-25.71-7-5.16-16.26-9.82-21.39-17.75C18.12,81.35,10.12,87.56,0,97.76c13.35,13.45,25.84,21.68,38.13,24.72h0c-6.53,10.84-9.52,25.48-9.46,44.41,14.79.05,28.56-1.85,42-8.08.39-12.44-1-26.48-4.62-38.35Z"/><path id="Dark_Brown" data-name="Dark Brown" class="cls-3" d="M58.34,104.58a44.67,44.67,0,0,0-20.25,17.89,44.81,44.81,0,0,0,27.88-2A55.11,55.11,0,0,0,58.34,104.58Z"/></g></g></svg>